<svg xmlns="http://www.w3.org/2000/svg" width="16" height="16" fill="#ff00aa" class="bi bi-book" viewBox="0 0 16 16">
    <path
        d="M1 2.828c.885-.37 2.154-.678 3.5-.705V12.5a.5.5 0 0 0 .5.5h10V1.5a1.5 1.5 0 0 0-1.5-1.5H4a1.5 1.5 0 0 0-1.5 1.5v11.707C2.92 13.117 2.506 12.5 1 12.5V2.828z" />
    <path
        d="M3.5 1c-.957 0-2.16.21-3.001.465V13.5c.896-.345 2.219-.5 3.5-.5v-11c0-.27.172-.478.5-.5zM11 12V1.5c0-.827.673-1.5 1.5-1.5H14a.5.5 0 0 1 .5.5v11h-2V1.5c0-.27-.172-.478-.5-.5H11v11h-.5a.5.5 0 0 0-.5.5V12z" />
</svg>